<svg width="25" height="25" viewBox="0 0 25 25" fill="none" xmlns="http://www.w3.org/2000/svg">
<path d="M25 12.4991C25 13.7857 18.9586 13.8609 18.4944 14.9803C18.0301 16.0996 22.2133 20.4633 21.3393 21.3374C20.4652 22.2115 16.1419 18.0113 14.9821 18.4925C13.8224 18.9737 13.7876 24.9981 12.5009 24.9981C11.2143 24.9981 11.1391 18.9568 10.0197 18.4925C8.90038 18.0282 4.53665 22.2115 3.66259 21.3374C2.78853 20.4633 6.98872 16.14 6.50752 14.9803C6.02632 13.8205 0 13.7857 0 12.4991C0 11.2124 6.04135 11.1372 6.50564 10.0179C6.96992 8.8985 2.78665 4.53477 3.66071 3.66071C4.53477 2.78665 8.85808 6.98684 10.0179 6.50564C11.1776 6.02444 11.2124 0 12.4991 0C13.7857 0 13.8609 6.04135 14.9803 6.50564C16.0996 6.96992 20.4633 2.78665 21.3374 3.66071C22.2115 4.53477 18.0113 8.85808 18.4925 10.0179C18.9737 11.1776 24.9981 11.2124 24.9981 12.4991H25Z" fill="#3D4838"/>
</svg>
