<svg width="25" height="26" viewBox="0 0 25 26" fill="none" xmlns="http://www.w3.org/2000/svg">
<path d="M25 12.4997L21.3558 14.5222L23.7639 17.925L19.6015 18.1611L20.2949 22.2722L16.4402 20.6835L15.281 24.6888L12.5 21.5809L9.71901 24.6888L8.55983 20.6835L4.70513 22.2722L5.39851 18.1611L1.23611 17.925L3.64423 14.5222L0 12.4997L3.64423 10.4762L1.23611 7.07346L5.39851 6.83842L4.70513 2.72624L8.55983 4.31491L9.71901 0.30957L12.5 3.41854L15.281 0.30957L16.4402 4.31491L20.2949 2.72624L19.6015 6.83842L23.7639 7.07346L21.3558 10.4762L25 12.4997Z" fill="#3D4838"/>
</svg>
