<svg width="25" height="26" viewBox="0 0 25 26" fill="none" xmlns="http://www.w3.org/2000/svg">
<path d="M25 13.0498C25 14.3574 23.0126 15.3196 22.6456 16.4988C22.2661 17.7213 23.32 19.7199 22.6124 20.7372C21.9048 21.7545 19.75 21.3298 18.7683 22.0772C17.7867 22.8246 17.5321 25.092 16.3635 25.4891C15.195 25.8861 13.75 24.2066 12.5 24.2066C11.25 24.2066 9.76376 25.8717 8.63647 25.4891C7.46789 25.092 7.20413 22.8174 6.23165 22.0772C5.25917 21.337 3.10207 21.7641 2.38762 20.7372C1.67317 19.7103 2.73394 17.7213 2.35436 16.4988C1.97477 15.2764 0 14.3574 0 13.0498C0 11.7422 1.98739 10.7801 2.35436 9.60079C2.73394 8.37834 1.68005 6.37971 2.38762 5.3624C3.09518 4.34509 5.25 4.76977 6.23165 4.02238C7.2133 3.27499 7.46789 1.00764 8.63647 0.610554C9.80505 0.213467 11.25 1.89299 12.5 1.89299C13.75 1.89299 15.2362 0.227863 16.3635 0.610554C17.5321 1.00764 17.7959 3.28219 18.7683 4.02238C19.7408 4.76257 21.8979 4.33549 22.6124 5.3624C23.3268 6.3893 22.2661 8.37834 22.6456 9.60079C23.0115 10.7801 25 11.7422 25 13.0498Z" fill="#3D4838"/>
</svg>
