<svg width="25" height="25" viewBox="0 0 25 25" fill="none" xmlns="http://www.w3.org/2000/svg">
<g clip-path="url(#clip0_222_72)">
<path d="M25 12.5C25 13.6729 13.3802 11.7376 12.832 12.6853C12.2665 13.6626 19.7328 22.7583 18.7555 23.3237C17.8085 23.8719 13.6736 12.8788 12.5 12.8788C11.3264 12.8788 7.19215 23.8719 6.24449 23.3237C5.29683 22.7755 12.7335 13.6626 12.168 12.6853C11.6198 11.7383 0 13.6736 0 12.5C0 11.3265 11.6198 13.2624 12.168 12.3148C12.7335 11.3375 5.26722 2.24176 6.24449 1.67633C7.22176 1.1109 11.3264 12.1212 12.5 12.1212C13.6736 12.1212 17.8078 1.12812 18.7555 1.67633C19.7328 2.24176 12.2665 11.3375 12.832 12.3148C13.3802 13.2617 25 11.3265 25 12.5Z" fill="#3D4838"/>
</g>
<defs>
<clipPath id="clip0_222_72">
<rect width="25" height="25" fill="white"/>
</clipPath>
</defs>
</svg>
